<svg width="20" height="20" viewBox="0 0 20 20" fill="none" xmlns="http://www.w3.org/2000/svg">
<path d="M11.6667 1.6665C13.3334 1.6665 14.1667 2.50817 14.1667 4.1915V10.0665C14.1667 11.7248 12.9917 12.3665 11.55 11.4998L10.45 10.8332C10.2 10.6832 9.80004 10.6832 9.55004 10.8332L8.45004 11.4998C7.00837 12.3665 5.83337 11.7248 5.83337 10.0665V4.1915C5.83337 2.50817 6.66671 1.6665 8.33337 1.6665H11.6667Z" stroke="#949494" stroke-width="1.5" stroke-linecap="round" stroke-linejoin="round"/>
<path d="M5.68329 4.1583C2.84163 4.6333 1.66663 6.3833 1.66663 9.91663V12.4416C1.66663 16.65 3.33329 18.3333 7.49996 18.3333H12.5C16.6666 18.3333 18.3333 16.65 18.3333 12.4416V9.91663C18.3333 6.32497 17.1166 4.56663 14.1666 4.1333" stroke="#949494" stroke-width="1.5" stroke-linecap="round" stroke-linejoin="round"/>
</svg>
