<svg width="30" height="30" viewBox="0 0 30 30" fill="none" xmlns="http://www.w3.org/2000/svg">
<path d="M20.2375 2.5H9.7625C5.2125 2.5 2.5 5.2125 2.5 9.7625V20.225C2.5 24.7875 5.2125 27.5 9.7625 27.5H20.225C24.775 27.5 27.4875 24.7875 27.4875 20.2375V9.7625C27.5 5.2125 24.7875 2.5 20.2375 2.5ZM22.0875 11.525C21.85 11.9875 21.3 12.175 20.825 11.95C19.2875 11.175 17.625 10.75 15.9375 10.625V20.3625C15.9375 20.875 15.5125 21.3 15 21.3C14.4875 21.3 14.0625 20.875 14.0625 20.3625V10.625C12.375 10.75 10.7125 11.175 9.175 11.95C9.0375 12.0125 8.8875 12.0375 8.75 12.0375C8.4125 12.0375 8.075 11.85 7.9125 11.525C7.675 11.0625 7.8625 10.5 8.325 10.2625C12.5 8.175 17.4875 8.175 21.6625 10.2625C22.1375 10.5 22.325 11.0625 22.0875 11.525Z" fill="#3A3A3A"/>
</svg>
