<svg width="28" height="28" viewBox="0 0 28 28" fill="none" xmlns="http://www.w3.org/2000/svg">
<path d="M10.4999 25.6668H17.4999C23.3333 25.6668 25.6666 23.3335 25.6666 17.5002V10.5002C25.6666 4.66683 23.3333 2.3335 17.4999 2.3335H10.4999C4.66659 2.3335 2.33325 4.66683 2.33325 10.5002V17.5002C2.33325 23.3335 4.66659 25.6668 10.4999 25.6668Z" stroke="white" stroke-width="1.5" stroke-linecap="round" stroke-linejoin="round"/>
<path d="M10.5001 11.6667C11.7887 11.6667 12.8334 10.622 12.8334 9.33333C12.8334 8.04467 11.7887 7 10.5001 7C9.21142 7 8.16675 8.04467 8.16675 9.33333C8.16675 10.622 9.21142 11.6667 10.5001 11.6667Z" stroke="white" stroke-width="1.5" stroke-linecap="round" stroke-linejoin="round"/>
<path d="M3.11499 22.1083L8.86666 18.2467C9.78832 17.6283 11.1183 17.6983 11.9467 18.41L12.3317 18.7483C13.2417 19.53 14.7117 19.53 15.6217 18.7483L20.475 14.5833C21.385 13.8017 22.855 13.8017 23.765 14.5833L25.6667 16.2167" stroke="white" stroke-width="1.5" stroke-linecap="round" stroke-linejoin="round"/>
</svg>
